<svg xmlns="http://www.w3.org/2000/svg" enable-background="new 0 0 32 32" viewBox="0 0 32 32" id="Blog">
  <g id="Blog" fill="#000000" class="color000000 svgShape">
    <path fill="#d6fece" d="M30,10.5V26c0,2.21-1.79,4-4,4H6c-2.21,0-4-1.79-4-4V10.5H30z" class="colorcdf6f9 svgShape"></path>
    <path fill="#ffffff" d="M20.975 15.275L20.975 15.275c.812.812.812 2.128 0 2.939l-7.017 7.017c-.109.109-.249.181-.401.207l-2.275.384c-.503.085-.939-.351-.854-.854l.384-2.275c.026-.152.098-.292.207-.401l7.017-7.017C18.847 14.464 20.163 14.464 20.975 15.275zM30 6v4.5H2V6c0-2.21 1.79-4 4-4h20C28.21 2 30 3.79 30 6z" class="colorffffff svgShape"></path>
    <path fill="#32a81a" d="M26,1.1H6C3.298,1.1,1.1,3.298,1.1,6v20c0,2.702,2.198,4.9,4.9,4.9h20c2.702,0,4.9-2.198,4.9-4.9V6
		C30.9,3.298,28.702,1.1,26,1.1z M6,2.9h20c1.709,0,3.1,1.391,3.1,3.1v3.6H2.9V6C2.9,4.291,4.291,2.9,6,2.9z M26,29.1H6
		c-1.709,0-3.1-1.391-3.1-3.1V11.4h26.2V26C29.1,27.709,27.709,29.1,26,29.1z" class="color1a83a8 svgShape"></path>
    <path fill="#32a81a" d="M6.96 7.15h1.706c.497 0 .9-.403.9-.9s-.403-.9-.9-.9H6.96c-.497 0-.9.403-.9.9S6.463 7.15 6.96 7.15zM12.609 7.15h12.43c.497 0 .9-.403.9-.9s-.403-.9-.9-.9h-12.43c-.497 0-.9.403-.9.9S12.112 7.15 12.609 7.15zM17.398 14.639l-7.015 7.017c-.244.242-.403.551-.459.889L9.54 24.818c-.088.523.083 1.059.458 1.434.31.31.729.48 1.161.48.09 0 .182-.008.272-.022l2.274-.384c.339-.057.647-.216.889-.458l7.018-7.017c.563-.563.872-1.311.872-2.106s-.31-1.544-.872-2.106C20.486 13.514 18.523 13.514 17.398 14.639zM13.407 24.551l-2.055.347.338-2.004 4.917-4.917 1.672 1.672L13.407 24.551zM20.338 17.578l-.789.793-1.668-1.668.791-.791c.459-.461 1.207-.461 1.666 0C20.798 16.371 20.798 17.119 20.338 17.578z" class="color1a83a8 svgShape"></path>
  </g>
</svg>
